<svg id="Layer_2" data-name="Layer 2" xmlns="http://www.w3.org/2000/svg" viewBox="0 0 2000 2000"><defs><style>.cls-1{fill:#ad0000;}.cls-1,.cls-3{stroke:#000;stroke-miterlimit:10;stroke-width:19px;}.cls-2{fill:#e0adad;}.cls-2,.cls-4{opacity:0.2;}.cls-3{fill:#042033;}.cls-4{fill:#b3b3b3;}</style></defs><title>svgArtboard 11</title><polygon class="cls-1" points="1088.46 881.51 1043.53 790.67 1131.38 720.27 1281.49 599.98 1477.67 442.78 1522.61 533.62 1328.66 689.03 1184.04 804.92 1088.46 881.51"/><path class="cls-1" d="M1143.69,1257.4l-.69.45c-3.43,2.24-6.57,4.83-10.12,6.93a465.68,465.68,0,0,1-225.58,65q-16.39.42-32.72-.31-18-.8-35.87-3a263.34,263.34,0,0,1-205.43,224.87,260.19,260.19,0,0,1-39.84,5.44,263,263,0,0,1-64.8-4.18l-3.81-.75L517,1532.76l-18.54-45.13-21.07-51.31a187.11,187.11,0,0,0,63.08,17.53h0a185,185,0,0,0,94.19-15.72h0a186.67,186.67,0,0,0,72.47-58.29h0a185.51,185.51,0,0,0,24.63-44.95,125,125,0,0,1-75.6-224.21c1.92-1.47,3.9-2.9,5.94-4.27s4.33-2.84,6.59-4.18a127.06,127.06,0,0,1,19.9-9.52,125.1,125.1,0,0,1,168.26,106.67c.21,2.56.35,5.11.4,7.66a122.5,122.5,0,0,1-.57,14.85,306.27,306.27,0,0,0,42.29,3.66h0A302.94,302.94,0,0,0,1048,1189.22q5.34-2.88,10.62-6,7.76-4.56,15.11-9.52l0,0Z"/><path class="cls-2" d="M830.45,1315.87c-.19,1.62-.48,4-.85,6.79s-1,7.93-1.69,12.2c-1.66,10.53-3.8,18.91-4.89,23.1-1.19,4.57-2.3,8.37-3.14,11.09L597.53,1546.78a244.63,244.63,0,0,1-65.85-3.3c-.21-.52-.42-1-.64-1.56s-.38-.94-.58-1.4L912.72,1235a312.19,312.19,0,0,0,98.47-18.83l-130.14,104c-6.29-.19-11.84-.49-16.51-.81-3.06-.2-10.32-.7-18.48-1.61-2.5-.28-7.3-.85-11.21-1.32Z"/><path class="cls-2" d="M636.2,1540.92l169.17-135.23A253.87,253.87,0,0,1,636.2,1540.92Z"/><path class="cls-2" d="M1075,1190.14l30,35.87-101.92,81.46c-11.88,2.9-24.81,5.53-38.7,7.66a453.21,453.21,0,0,1-51.93,4.92L996,1253.32Z"/><path class="cls-2" d="M602,1459.2l-79,63.12q-9.25-22.53-18.52-45.07l20-16A194.68,194.68,0,0,0,602,1459.2Z"/><path class="cls-2" d="M700.2,1320.8,847.61,1203c.12,2.15.16,3.92.17,5.12,0,0,.07,6.47-.78,15.39-.11,1.12-.25,2.52-.25,2.52-.15,1.57-.29,2.88-.4,3.86,2.91.48,5.37.87,7.23,1.16,3.17.49,5.25.81,8,1.19.7.1,3.31.45,6.46.81,3.66.43,8.76,1,15.09,1.38L734.09,1353.57c2.34-4.82,4-8.83,5.16-11.66.59-1.49,1.59-4.1,3.55-9.27,1.15-3,2.09-5.5,2.73-7.2-2.61,0-6.54,0-11.34-.06-3.31,0-5,0-5.65-.06a114.3,114.3,0,0,1-16.85-1.8A116.48,116.48,0,0,1,700.2,1320.8Z"/><path class="cls-3" d="M1100.17,1063.74a131.27,131.27,0,0,1-25.48,46.65h0l0,0a131.25,131.25,0,0,1-32.32,27.43l-.64-.77-13.18-15.71-30-35.78.36-.41h0a96.09,96.09,0,0,0,13.51-108.54l55.07-44.4a131.4,131.4,0,0,1,32.72,131.5Z"/><path class="cls-4" d="M1024.9,1061.25l27.74-22.18,42.19-33.73a122.31,122.31,0,0,1-7.32,65.73l-53.15,42.48-12.9-15.38-10.56-12.6a104.75,104.75,0,0,0,7.57-11.25A103.36,103.36,0,0,0,1024.9,1061.25Z"/><path class="cls-3" d="M1264.53,1040.25a282.3,282.3,0,0,1-113.62,212.88q-3.83,2.52-7.71,5l-.2-.24-31.36-37.38-28.28-33.72-10.47-12.48c.27-.18.55-.35.82-.54a171.79,171.79,0,0,0,22.12-17s0,0,0,0a174.07,174.07,0,0,0,47-187.3,175.28,175.28,0,0,0-41-64.82l87.29-70.35q4,4.34,7.93,8.88a283.2,283.2,0,0,1,28.67,40.15q3.94,6.69,7.48,13.49a281.87,281.87,0,0,1,18.68,45q3.29,10.32,5.72,20.77a280.36,280.36,0,0,1,7,50.88C1265,1022.38,1265,1031.34,1264.53,1040.25Z"/><path class="cls-4" d="M1254.63,1046.59a275.73,275.73,0,0,1-15.24,72.05l-119.48,95.5-30-35.86Z"/><path class="cls-4" d="M1255.33,1021l-113,90.32a184.4,184.4,0,0,0,19.93-75.79l86.42-69.08c1.76,7.71,3.33,16.2,4.52,25.41A269.88,269.88,0,0,1,1255.33,1021Z"/><path class="cls-4" d="M1243.33,946.51l-81.61,65.23a183,183,0,0,0-11.78-50.45l74.91-59.87c3.51,6.77,7.05,14.3,10.43,22.57C1238.51,931.92,1241.16,939.47,1243.33,946.51Z"/><path class="cls-3" d="M1255,1391.42l-83.14-99.13a317.4,317.4,0,0,0,130-201.07q2.64-13.85,4-27.9a316.91,316.91,0,0,0,.59-57.06q-1-12.22-2.91-24.42a314.51,314.51,0,0,0-11.33-47.42q-3.18-9.84-7-19.56a317,317,0,0,0-21-43.15c-.26-.48-.54-1-.82-1.42a318.39,318.39,0,0,0-45.18-59.51c-.08-.08-.15-.17-.24-.25l101.78-81.84a447.26,447.26,0,0,1,33.07,40.85q7,9.76,13.54,20,4.36,6.83,8.52,13.86,8,13.51,14.89,27.36,4.46,8.91,8.48,17.93A444.82,444.82,0,0,1,1415,891.82q3.51,10.73,6.46,21.55a444.05,444.05,0,0,1,10.3,48.26C1457,1123.26,1391.82,1290.73,1255,1391.42Z"/><path class="cls-4" d="M1316,1057.36a324.37,324.37,0,0,0,1-32.47c-.19-9.56-.79-18.53-1.64-26.84l97.93-78.29c1.92,7.34,3.75,15.1,5.42,23.24,2,9.92,3.61,19.42,4.84,28.42Z"/><path class="cls-4" d="M1407.43,899.41l-95.2,76.09c-1.49-8.54-3.43-17.71-6-27.37-2.1-8-4.4-15.39-6.77-22.3L1390,853.45c3.17,7.1,6.31,14.67,9.35,22.7S1405.09,892,1407.43,899.41Z"/><path class="cls-4" d="M1381.76,835.85l-89.3,71.39c-2.85-6.9-6.13-14.19-9.91-21.76s-7.67-14.59-11.49-21l87.36-69.83c4.25,6.64,8.53,13.73,12.77,21.27Q1377,826.17,1381.76,835.85Z"/></svg>